<svg aria-hidden="true" style="position: absolute; width: 0; height: 0; overflow: hidden;" version="1.1" xmlns="http://www.w3.org/2000/svg" xmlns:xlink="http://www.w3.org/1999/xlink">
<defs>
<symbol id="icon-subscription" viewBox="0 0 32 32">
<path   opacity="0.4" d="M10.070 22.664c-0.543-0.543-0.26-0.39-1.57-0.741-0.594-0.159-1.117-0.466-1.589-0.833l-2.836 6.953c-0.274 0.673 0.238 1.404 0.964 1.377l3.293-0.126 2.265 2.393c0.5 0.527 1.377 0.363 1.652-0.31l3.253-7.976c-0.678 0.378-1.429 0.599-2.207 0.599-1.219 0-2.364-0.474-3.226-1.336zM27.925 28.044l-2.836-6.953c-0.473 0.368-0.995 0.673-1.589 0.833-1.317 0.352-1.028 0.199-1.57 0.741-0.862 0.861-2.008 1.336-3.226 1.336-0.777 0-1.529-0.222-2.207-0.599l3.253 7.976c0.274 0.673 1.152 0.837 1.652 0.31l2.266-2.393 3.293 0.126c0.726 0.028 1.239-0.704 0.964-1.377zM20.438 21.25c0.955-0.972 1.064-0.888 2.424-1.259 0.868-0.237 1.547-0.927 1.779-1.811 0.468-1.775 0.346-1.561 1.622-2.859 0.636-0.647 0.884-1.59 0.651-2.474-0.467-1.774-0.468-1.526 0-3.302 0.232-0.884-0.016-1.827-0.651-2.474-1.276-1.299-1.154-1.085-1.622-2.859-0.232-0.884-0.911-1.574-1.779-1.811-1.742-0.476-1.532-0.351-2.809-1.651-0.636-0.647-1.563-0.9-2.431-0.663-1.742 0.475-1.499 0.476-3.244 0-0.868-0.237-1.795 0.016-2.431 0.663-1.276 1.299-1.066 1.175-2.809 1.651-0.868 0.237-1.547 0.928-1.779 1.811-0.467 1.774-0.346 1.561-1.622 2.859-0.636 0.647-0.884 1.59-0.651 2.474 0.467 1.773 0.468 1.525 0 3.301-0.232 0.884 0.016 1.827 0.651 2.474 1.276 1.299 1.154 1.084 1.622 2.859 0.232 0.884 0.911 1.574 1.779 1.811 1.399 0.381 1.503 0.321 2.424 1.259 0.827 0.842 2.115 0.993 3.109 0.364 0.397-0.252 0.858-0.386 1.329-0.386s0.932 0.134 1.329 0.386c0.993 0.629 2.281 0.478 3.108-0.364zM10.104 10.998c0-3.314 2.64-6.001 5.896-6.001s5.896 2.687 5.896 6.001c0 3.314-2.64 6.001-5.896 6.001s-5.896-2.687-5.896-6.001z"></path>
</symbol>
<symbol id="icon-settings" viewBox="0 0 32 32">
<path  opacity="0.4" d="M30.463 19.731l-2.663-1.538c0.269-1.45 0.269-2.938 0-4.387l2.663-1.537c0.306-0.175 0.444-0.537 0.344-0.875-0.694-2.225-1.875-4.237-3.419-5.912-0.238-0.256-0.625-0.319-0.925-0.144l-2.663 1.538c-1.119-0.963-2.406-1.706-3.8-2.194v-3.069c0-0.35-0.244-0.656-0.587-0.731-2.294-0.512-4.644-0.487-6.825 0-0.344 0.075-0.588 0.381-0.588 0.731v3.075c-1.387 0.494-2.675 1.237-3.8 2.194l-2.656-1.537c-0.306-0.175-0.688-0.119-0.925 0.144-1.544 1.669-2.725 3.681-3.419 5.912-0.106 0.338 0.038 0.7 0.344 0.875l2.662 1.537c-0.269 1.45-0.269 2.938 0 4.388l-2.663 1.538c-0.306 0.175-0.444 0.538-0.344 0.875 0.694 2.225 1.875 4.238 3.419 5.913 0.237 0.256 0.625 0.319 0.925 0.144l2.663-1.537c1.119 0.962 2.406 1.706 3.8 2.194v3.075c0 0.35 0.244 0.656 0.588 0.731 2.294 0.512 4.644 0.487 6.825 0 0.344-0.075 0.587-0.381 0.587-0.731v-3.075c1.388-0.494 2.675-1.238 3.8-2.194l2.663 1.537c0.306 0.175 0.687 0.119 0.925-0.144 1.544-1.669 2.725-3.681 3.419-5.913 0.094-0.344-0.044-0.706-0.35-0.881zM16 21c-2.756 0-5-2.244-5-5s2.244-5 5-5c2.756 0 5 2.244 5 5s-2.244 5-5 5z"></path>
</symbol>
<symbol id="icon-articles" viewBox="0 0 32 32">
<path  opacity="0.4" d="M30 22.5v-21c0-0.831-0.669-1.5-1.5-1.5h-20.5c-3.313 0-6 2.688-6 6v20c0 3.312 2.688 6 6 6h20.5c0.831 0 1.5-0.669 1.5-1.5v-1c0-0.469-0.219-0.894-0.556-1.169-0.263-0.962-0.263-3.706 0-4.669 0.337-0.269 0.556-0.694 0.556-1.163zM10 8.375c0-0.206 0.169-0.375 0.375-0.375h13.25c0.206 0 0.375 0.169 0.375 0.375v1.25c0 0.206-0.169 0.375-0.375 0.375h-13.25c-0.206 0-0.375-0.169-0.375-0.375v-1.25zM10 12.375c0-0.206 0.169-0.375 0.375-0.375h13.25c0.206 0 0.375 0.169 0.375 0.375v1.25c0 0.206-0.169 0.375-0.375 0.375h-13.25c-0.206 0-0.375-0.169-0.375-0.375v-1.25zM25.837 28h-17.837c-1.106 0-2-0.894-2-2 0-1.1 0.9-2 2-2h17.837c-0.119 1.069-0.119 2.931 0 4z"></path>
</symbol>
<symbol id="icon-agents" viewBox="0 0 32 32">
<path  opacity="0.4" d="M16 16c4.419 0 8-3.581 8-8s-3.581-8-8-8c-4.419 0-8 3.581-8 8s3.581 8 8 8zM21.988 18.038l-2.988 11.962-2-8.5 2-3.5h-6l2 3.5-2 8.5-2.988-11.962c-4.456 0.212-8.012 3.856-8.012 8.363v2.6c0 1.656 1.344 3 3 3h22c1.656 0 3-1.344 3-3v-2.6c0-4.506-3.556-8.15-8.012-8.363z"></path>
</symbol>
<symbol id="icon-contacts" viewBox="0 0 32 32">
<path  opacity="0.4" d="M4.8 14.4c1.765 0 3.2-1.435 3.2-3.2s-1.435-3.2-3.2-3.2c-1.765 0-3.2 1.435-3.2 3.2s1.435 3.2 3.2 3.2zM27.2 14.4c1.765 0 3.2-1.435 3.2-3.2s-1.435-3.2-3.2-3.2c-1.765 0-3.2 1.435-3.2 3.2s1.435 3.2 3.2 3.2zM28.8 16h-3.2c-0.88 0-1.675 0.355-2.255 0.93 2.015 1.105 3.445 3.1 3.755 5.47h3.3c0.885 0 1.6-0.715 1.6-1.6v-1.6c0-1.765-1.435-3.2-3.2-3.2zM16 16c3.095 0 5.6-2.505 5.6-5.6s-2.505-5.6-5.6-5.6c-3.095 0-5.6 2.505-5.6 5.6s2.505 5.6 5.6 5.6zM19.84 17.6h-0.415c-1.040 0.5-2.195 0.8-3.425 0.8s-2.38-0.3-3.425-0.8h-0.415c-3.18 0-5.76 2.58-5.76 5.76v1.44c0 1.325 1.075 2.4 2.4 2.4h14.4c1.325 0 2.4-1.075 2.4-2.4v-1.44c0-3.18-2.58-5.76-5.76-5.76zM8.655 16.93c-0.58-0.575-1.375-0.93-2.255-0.93h-3.2c-1.765 0-3.2 1.435-3.2 3.2v1.6c0 0.885 0.715 1.6 1.6 1.6h3.295c0.315-2.37 1.745-4.365 3.76-5.47z"></path>
</symbol>
<symbol id="icon-ideas" viewBox="0 0 32 32">
<path  opacity="0.4" d="M11.004 28.397c0.001 0.393 0.117 0.778 0.335 1.106l1.068 1.606c0.182 0.274 0.43 0.5 0.72 0.655s0.615 0.237 0.945 0.237h3.857c0.33 0 0.654-0.081 0.945-0.237s0.538-0.381 0.72-0.655l1.068-1.606c0.218-0.328 0.335-0.712 0.335-1.106l0.003-2.397h-9.999l0.003 2.397zM5 11c0 2.773 1.028 5.303 2.723 7.236 1.033 1.178 2.648 3.639 3.263 5.716 0.002 0.016 0.004 0.032 0.007 0.049h10.015c0.003-0.016 0.004-0.032 0.007-0.049 0.616-2.076 2.231-4.538 3.263-5.716 1.694-1.933 2.722-4.463 2.722-7.236 0-6.087-4.943-11.019-11.034-11-6.376 0.019-10.966 5.186-10.966 11zM16 6c-2.757 0-5 2.243-5 5 0 0.553-0.447 1-1 1s-1-0.447-1-1c0-3.86 3.14-7 7-7 0.552 0 1 0.447 1 1s-0.448 1-1 1z"></path>
</symbol>
<symbol id="icon-users" viewBox="0 0 32 32">
<path d="M7.111 10.667h17.778v10.667h-17.778v-10.667zM29.333 16c0 1.473 1.194 2.667 2.667 2.667v5.333c0 1.473-1.194 2.667-2.667 2.667h-26.667c-1.473 0-2.667-1.194-2.667-2.667v-5.333c1.473 0 2.667-1.194 2.667-2.667s-1.194-2.667-2.667-2.667v-5.333c0-1.473 1.194-2.667 2.667-2.667h26.667c1.473 0 2.667 1.194 2.667 2.667v5.333c-1.473 0-2.667 1.194-2.667 2.667zM26.667 10.222c0-0.736-0.597-1.333-1.333-1.333h-18.667c-0.736 0-1.333 0.597-1.333 1.333v11.556c0 0.736 0.597 1.333 1.333 1.333h18.667c0.736 0 1.333-0.597 1.333-1.333v-11.556z"></path>
</symbol>
<symbol id="icon-overview" viewBox="0 0 32 32">
<path  opacity="0.4" d="M31.046 17.882h-13.958l9.296 9.296c0.355 0.355 0.94 0.384 1.305 0.040 2.276-2.145 3.842-5.036 4.302-8.286 0.079-0.556-0.383-1.050-0.945-1.050zM30.115 14.071c-0.485-7.027-6.1-12.642-13.127-13.127-0.536-0.037-0.988 0.415-0.988 0.953v13.162h13.163c0.538 0 0.989-0.452 0.952-0.988zM13.176 17.882v-13.958c0-0.562-0.494-1.024-1.049-0.945-7.010 0.991-12.368 7.115-12.119 14.454 0.256 7.538 6.746 13.719 14.288 13.624 2.965-0.037 5.704-0.992 7.957-2.59 0.465-0.329 0.495-1.014 0.092-1.416l-9.168-9.169z"></path>
</symbol>
<symbol id="icon-info" viewBox="0 0 32 32">
<path fill="#c5c7cd" style="fill: var(--color3, #c5c7cd)" d="M16 8c2.2 0 4-1.8 4-4s-1.8-4-4-4c-2.2 0-4 1.8-4 4s1.8 4 4 4zM16 12c-2.2 0-4 1.8-4 4s1.8 4 4 4c2.2 0 4-1.8 4-4s-1.8-4-4-4zM16 24c-2.2 0-4 1.8-4 4s1.8 4 4 4c2.2 0 4-1.8 4-4s-1.8-4-4-4z"></path>
</symbol>
<symbol id="icon-clear" viewBox="0 0 32 32">
<path fill="#c5c7cd" style="fill: var(--color3, #c5c7cd)" d="M16 32c2.207 0 3.998-1.791 3.998-4h-7.996c0 2.209 1.791 4 3.998 4zM29.462 22.643c-1.207-1.298-3.467-3.249-3.467-9.643 0-4.856-3.405-8.744-7.996-9.697v-1.303c0-1.104-0.895-2-1.999-2s-1.999 0.896-1.999 2v1.303c-4.591 0.954-7.996 4.841-7.996 9.697 0 6.394-2.259 8.346-3.467 9.643-0.375 0.403-0.541 0.885-0.538 1.357 0.007 1.025 0.811 2 2.006 2h23.988c1.195 0 2-0.975 2.006-2 0.003-0.472-0.163-0.954-0.538-1.357v0z"></path>
</symbol>
<symbol id="icon-message" viewBox="0 0 32 32">
<path fill="#c5c7cd" style="fill: var(--color3, #c5c7cd)" d="M14.316 32c1.859 0 3.367-1.508 3.367-3.368h-6.734c0 1.861 1.508 3.368 3.367 3.368zM25.652 24.121c-1.017-1.093-2.919-2.736-2.919-8.121 0-4.089-2.867-7.363-6.734-8.166v-1.097c0-0.93-0.754-1.684-1.683-1.684s-1.683 0.754-1.683 1.684v1.097c-3.866 0.803-6.734 4.077-6.734 8.166 0 5.384-1.903 7.028-2.919 8.121-0.316 0.339-0.456 0.745-0.453 1.143 0.006 0.863 0.683 1.684 1.689 1.684h20.2c1.006 0 1.684-0.821 1.689-1.684 0.003-0.397-0.137-0.804-0.453-1.143z"></path>
<path fill="#3751ff" style="fill: var(--color4, #3751ff); stroke: var(--color5, #f7f8fc)" stroke="#f7f8fc" stroke-linejoin="miter" stroke-linecap="butt" stroke-miterlimit="4" stroke-width="2.5263" d="M29.053 8.421c0 3.488-2.828 6.316-6.316 6.316s-6.316-2.828-6.316-6.316c0-3.488 2.828-6.316 6.316-6.316s6.316 2.828 6.316 6.316z"></path>
</symbol>
<symbol id="icon-search" viewBox="0 0 32 32">
<path fill="none" stroke="#c5c7cd" style="stroke: var(--color3, #c5c7cd)" stroke-linejoin="miter" stroke-linecap="butt" stroke-miterlimit="4" stroke-width="3" d="M24.5 13c0 6.351-5.149 11.5-11.5 11.5s-11.5-5.149-11.5-11.5c0-6.351 5.149-11.5 11.5-11.5s11.5 5.149 11.5 11.5z"></path>
<path fill="none" stroke="#c5c7cd" style="stroke: var(--color3, #c5c7cd)" stroke-linejoin="miter" stroke-linecap="round" stroke-miterlimit="4" stroke-width="3" d="M22 22l8 8"></path>
</symbol>
<symbol id="icon-logo" viewBox="0 0 32 32">
<path fill="#3751ff" style="fill: var(--color4, #3751ff)" d="M32 16c0 8.837-7.163 16-16 16s-16-7.163-16-16c0-8.837 7.163-16 16-16s16 7.163 16 16z"></path>
<path fill="#fff" style="fill: var(--color6, #fff)" d="M11 10c0-0.552 0.448-1 1-1h3.991c2.222 0 3.943 0.61 5.162 1.829 1.232 1.219 1.848 2.936 1.848 5.152 0 2.229-0.616 3.959-1.848 5.191-1.219 1.219-2.94 1.829-5.162 1.829h-3.991c-0.552 0-1-0.448-1-1v-12z"></path>
</symbol>
<symbol id="icon-sort" viewBox="0 0 37 32">
<path fill="#c5c7cd" style="fill: var(--color1, #c5c7cd)" d="M0.343 6.049l5.832-5.714c0.456-0.446 1.195-0.446 1.65 0l5.832 5.714c0.734 0.719 0.211 1.951-0.825 1.951h-3.499v22.857c0 0.631-0.522 1.143-1.167 1.143h-2.333c-0.644 0-1.167-0.512-1.167-1.143v-22.857h-3.499c-1.038 0-1.558-1.233-0.825-1.951zM17.5 4.571h18.667c0.644 0 1.167-0.512 1.167-1.143v-2.286c0-0.631-0.522-1.143-1.167-1.143h-18.667c-0.644 0-1.167 0.512-1.167 1.143v2.286c0 0.631 0.522 1.143 1.167 1.143zM16.333 12.571v-2.286c0-0.631 0.522-1.143 1.167-1.143h14c0.644 0 1.167 0.512 1.167 1.143v2.286c0 0.631-0.522 1.143-1.167 1.143h-14c-0.644 0-1.167-0.512-1.167-1.143zM16.333 30.857v-2.286c0-0.631 0.522-1.143 1.167-1.143h4.667c0.644 0 1.167 0.512 1.167 1.143v2.286c0 0.631-0.522 1.143-1.167 1.143h-4.667c-0.644 0-1.167-0.512-1.167-1.143zM16.333 21.714v-2.286c0-0.631 0.522-1.143 1.167-1.143h9.333c0.644 0 1.167 0.512 1.167 1.143v2.286c0 0.631-0.522 1.143-1.167 1.143h-9.333c-0.644 0-1.167-0.512-1.167-1.143z"></path>
</symbol>
</defs>
</svg>
